<?xml version="1.0" encoding="UTF-8"?>
<svg id="_圖層_1" data-name="圖層 1" xmlns="http://www.w3.org/2000/svg" viewBox="0 0 267.06 76.09">
  <defs>
    <style>
      .cls-1 {
        letter-spacing: .15em;
      }

      .cls-2 {
        letter-spacing: .15em;
      }

      .cls-3 {
        fill: #fff;
      }

      .cls-4 {
        letter-spacing: .13em;
      }

      .cls-5, .cls-6, .cls-7, .cls-8 {
        fill: #4eb4b5;
      }

      .cls-6 {
        font-family: NotoSansCJKtc-Medium-B5pc-H, 'Noto Sans CJK TC';
        font-size: 21.46px;
        font-weight: 500;
        letter-spacing: .18em;
      }

      .cls-7 {
        stroke: #4eb4b5;
        stroke-miterlimit: 10;
      }

      .cls-8 {
        font-family: Coda-Regular, Coda;
        font-size: 8.05px;
      }

      .cls-9 {
        fill: #ea5770;
      }
    </style>
  </defs>
  <g>
    <text class="cls-6" transform="translate(92.75 38.95)"><tspan x="0" y="0">幼獅綜合醫院</tspan></text>
    <text class="cls-8" transform="translate(92.52 54.35)"><tspan class="cls-1" x="0" y="0">Y</tspan><tspan class="cls-2" x="5.42" y="0">OUNG LION GENERAL HOSPI</tspan><tspan class="cls-4" x="134.39" y="0">T</tspan><tspan class="cls-2" x="139.26" y="0">AL </tspan></text>
  </g>
  <g>
    <path class="cls-7" d="m50.98,63.63c-1.53,0-3.05-.42-4.38-1.25-.71-.44-1.4-.89-2.09-1.33-.46-.3-.6-.92-.3-1.38.3-.46.92-.59,1.38-.3.67.44,1.36.88,2.06,1.32,2.02,1.26,4.63,1.26,6.65,0,17.59-11.04,26.56-20.97,27.43-30.34v-2.99c-.82-8.53-7.45-12.97-13.26-13.45-.97-.08-1.91-.12-2.8-.12-7.03,0-10.16,2.61-13.81,6.3l-.18.18c-.38.38-1.05.38-1.42,0l-.18-.18c-3.65-3.69-6.78-6.3-13.81-6.3-.88,0-1.82.04-2.79.12-5.81.48-12.44,4.93-13.26,13.57v2.98c.42,4.41,2.79,9.15,7.06,13.99.37.41.33,1.05-.09,1.41-.41.37-1.04.33-1.41-.09-4.56-5.17-7.1-10.29-7.55-15.22v-3.17c.93-9.88,8.47-14.92,15.09-15.47,1.03-.09,2.02-.13,2.96-.13,7.4,0,11.13,2.83,14.7,6.36,3.57-3.53,7.29-6.36,14.7-6.36.94,0,1.94.04,2.96.13,6.62.55,14.16,5.58,15.09,15.35v3.17c-.92,10.13-10.2,20.55-28.36,31.94-1.33.84-2.86,1.26-4.39,1.26Z"/>
    <g>
      <path class="cls-5" d="m30.91,60.57c-4.69,0-8.5-3.81-8.5-8.5s3.81-8.5,8.5-8.5,8.5,3.81,8.5,8.5-3.81,8.5-8.5,8.5Zm0-15c-3.58,0-6.5,2.92-6.5,6.5s2.92,6.5,6.5,6.5,6.5-2.92,6.5-6.5-2.92-6.5-6.5-6.5Z"/>
      <path class="cls-5" d="m30.91,56.07c-2.21,0-4-1.79-4-4s1.79-4,4-4,4,1.79,4,4-1.79,4-4,4Zm0-7c-1.65,0-3,1.35-3,3s1.35,3,3,3,3-1.35,3-3-1.35-3-3-3Z"/>
    </g>
    <path class="cls-5" d="m47.62,44.63c-.19,0-.39,0-.58-.01-6.68-.29-11.13-5.51-11.32-5.73-.35-.42-.3-1.05.12-1.41.42-.35,1.05-.3,1.41.12.04.05,4.1,4.78,9.89,5.02,3.72.16,7.4-1.55,10.93-5.09.39-.39,1.02-.39,1.41,0s.39,1.02,0,1.41c-3.77,3.77-7.76,5.68-11.87,5.68Z"/>
    <path class="cls-5" d="m60.05,30.35h-3.93c-1.8,0-3.27,1.47-3.27,3.27v1.69c0,1.8,1.47,3.27,3.27,3.27h3.93v-8.23Z"/>
    <path class="cls-9" d="m68.41,38.38h3.93c1.8,0,3.27-1.47,3.27-3.27v-1.69c0-1.8-1.47-3.27-3.27-3.27h-3.93v-3.93c0-1.8-1.47-3.27-3.27-3.27h-1.69c-1.8,0-3.27,1.47-3.27,3.27v3.93l.04,8.29,8.2-.05Z"/>
    <path class="cls-3" d="m62.61,32.76c-.12,0-.25-.05-.35-.14l-1.01-.98c-.2-.19-.2-.51-.01-.71.19-.2.51-.2.71-.01l1.01.98c.2.19.2.51.01.71-.1.1-.23.15-.36.15Z"/>
    <path class="cls-3" d="m67.48,37.42c-.12,0-.25-.05-.35-.14l-1.01-.98c-.2-.19-.2-.51-.01-.71.19-.2.51-.2.71-.01l1.01.98c.2.19.2.51.01.71-.1.1-.23.15-.36.15Z"/>
    <path class="cls-3" d="m66.38,32.67c-.12,0-.25-.05-.35-.14-.2-.19-.2-.51-.01-.71l.98-1.01c.19-.2.51-.2.71-.01.2.19.2.51.01.71l-.98,1.01c-.1.1-.23.15-.36.15Z"/>
    <path class="cls-3" d="m61.72,37.54c-.12,0-.25-.05-.35-.14-.2-.19-.2-.51-.01-.71l.98-1.01c.19-.2.51-.2.71-.01.2.19.2.51.01.71l-.98,1.01c-.1.1-.23.15-.36.15Z"/>
    <circle class="cls-3" cx="64.61" cy="34.26" r="1"/>
    <circle class="cls-5" cx="45.49" cy="60.47" r="2"/>
    <path class="cls-5" d="m68.28,38.63v3.93c0,1.8-1.47,3.27-3.27,3.27h-1.69c-1.8,0-3.27-1.47-3.27-3.27v-3.93h8.23Z"/>
  </g>
</svg>